<svg width="20" height="25" viewBox="0 0 20 25" fill="none" xmlns="http://www.w3.org/2000/svg">
<g clip-path="url(#clip0_179_449)">
<path d="M2.27293 7.52572L2.3308 18.0814L12.8865 18.1253C13.5767 18.1343 14.2613 18.0002 14.8971 17.7316C15.533 17.463 16.1063 17.0657 16.5811 16.5646C17.0558 16.0635 17.4216 15.4695 17.6556 14.8201C17.8895 14.1707 17.9864 13.4799 17.9402 12.7912C17.894 12.1025 17.7057 11.4308 17.3872 10.8184C17.0687 10.2061 16.6268 9.66628 16.0894 9.23307C15.552 8.79987 14.9307 8.48262 14.2647 8.30132C13.5987 8.12001 12.9024 8.07857 12.2195 8.1796C12.3156 7.49824 12.2699 6.80438 12.0855 6.14146C11.901 5.47854 11.5817 4.86083 11.1475 4.32699C10.7134 3.79315 10.1737 3.35468 9.56226 3.039C8.95083 2.72333 8.28084 2.53726 7.59419 2.49243C6.90755 2.4476 6.21905 2.54499 5.57178 2.77848C4.9245 3.01198 4.33239 3.37657 3.8325 3.84943C3.33261 4.32229 2.9357 4.89324 2.66662 5.52655C2.39753 6.15986 2.26207 6.84189 2.26869 7.52996" stroke="#51A8A4" stroke-width="2" stroke-linecap="round" stroke-linejoin="round"/>
</g>
<defs>
<clipPath id="clip0_179_449">
<rect width="24" height="20" fill="white" transform="matrix(0 -1 1 0 0 24.207)"/>
</clipPath>
</defs>
</svg>
