<svg width="113" height="37" viewBox="0 0 113 37" fill="none" xmlns="http://www.w3.org/2000/svg">
<path d="M10.7706 24V13.8182H13.2315V17.9048H17.2436V13.8182H19.6996V24H17.2436V19.9084H13.2315V24H10.7706ZM24.8129 24.1442C24.0141 24.1442 23.3247 23.9867 22.7447 23.6719C22.168 23.3537 21.7238 22.9013 21.4123 22.3146C21.104 21.7247 20.9499 21.0237 20.9499 20.2116C20.9499 19.4228 21.1057 18.7334 21.4173 18.1435C21.7288 17.5502 22.168 17.0895 22.7347 16.7614C23.3015 16.4299 23.9693 16.2642 24.7383 16.2642C25.2818 16.2642 25.779 16.3487 26.2298 16.5178C26.6805 16.6868 27.07 16.937 27.3981 17.2685C27.7262 17.5999 27.9814 18.0092 28.1637 18.4964C28.346 18.9804 28.4371 19.5355 28.4371 20.1619V20.7685H21.8001V19.3565H26.1751C26.1718 19.098 26.1104 18.8677 25.9911 18.6655C25.8718 18.4633 25.7077 18.3059 25.4989 18.1932C25.2934 18.0772 25.0565 18.0192 24.788 18.0192C24.5162 18.0192 24.2726 18.0805 24.0572 18.2031C23.8417 18.3224 23.671 18.4865 23.5451 18.6953C23.4192 18.9008 23.3529 19.1345 23.3462 19.3963V20.8331C23.3462 21.1446 23.4076 21.4181 23.5302 21.6534C23.6528 21.8854 23.8268 22.0661 24.0522 22.1953C24.2776 22.3246 24.546 22.3892 24.8576 22.3892C25.073 22.3892 25.2686 22.3594 25.4442 22.2997C25.6199 22.2401 25.7707 22.1522 25.8967 22.0362C26.0226 21.9202 26.1171 21.7777 26.18 21.6087L28.4123 21.6733C28.3195 22.1738 28.1156 22.6096 27.8008 22.9808C27.4892 23.3487 27.0799 23.6354 26.5728 23.8409C26.0657 24.0431 25.479 24.1442 24.8129 24.1442ZM31.8315 24.1293C31.3443 24.1293 30.9118 24.0481 30.5339 23.8857C30.1594 23.7199 29.8627 23.4714 29.644 23.1399C29.4286 22.8052 29.3208 22.3859 29.3208 21.8821C29.3208 21.4579 29.3954 21.0999 29.5446 20.8082C29.6937 20.5166 29.8992 20.2796 30.161 20.0973C30.4229 19.915 30.7245 19.7775 31.0659 19.6847C31.4073 19.5885 31.7718 19.5239 32.1596 19.4908C32.5938 19.451 32.9435 19.4096 33.2086 19.3665C33.4738 19.3201 33.666 19.2554 33.7853 19.1726C33.908 19.0864 33.9693 18.9654 33.9693 18.8097V18.7848C33.9693 18.5296 33.8815 18.3324 33.7058 18.1932C33.5301 18.054 33.2931 17.9844 32.9949 17.9844C32.6734 17.9844 32.4148 18.054 32.2193 18.1932C32.0237 18.3324 31.8994 18.5246 31.8464 18.7699L29.6042 18.6903C29.6705 18.2263 29.8412 17.812 30.1163 17.4474C30.3947 17.0795 30.7759 16.7912 31.2598 16.5824C31.747 16.3703 32.332 16.2642 33.0147 16.2642C33.502 16.2642 33.9511 16.3222 34.362 16.4382C34.773 16.5509 35.131 16.7166 35.4359 16.9354C35.7408 17.1508 35.9761 17.416 36.1419 17.7308C36.3109 18.0457 36.3954 18.4053 36.3954 18.8097V24H34.1085V22.9361H34.0488C33.9129 23.1946 33.7389 23.4134 33.5268 23.5923C33.318 23.7713 33.0711 23.9055 32.786 23.995C32.5043 24.0845 32.1861 24.1293 31.8315 24.1293ZM32.5822 22.5384C32.844 22.5384 33.0794 22.4853 33.2882 22.3793C33.5003 22.2732 33.6693 22.1274 33.7953 21.9418C33.9212 21.7528 33.9842 21.5341 33.9842 21.2855V20.5597C33.9146 20.5961 33.8301 20.6293 33.7306 20.6591C33.6345 20.6889 33.5285 20.7171 33.4125 20.7436C33.2965 20.7701 33.1771 20.7933 33.0545 20.8132C32.9319 20.8331 32.8142 20.8513 32.7015 20.8679C32.4728 20.9044 32.2773 20.9607 32.1149 21.0369C31.9558 21.1132 31.8332 21.2126 31.747 21.3352C31.6641 21.4545 31.6227 21.5971 31.6227 21.7628C31.6227 22.0147 31.7122 22.2069 31.8912 22.3395C32.0734 22.4721 32.3038 22.5384 32.5822 22.5384ZM40.671 24.1094C40.1075 24.1094 39.5955 23.9635 39.1348 23.6719C38.6741 23.3802 38.3062 22.9427 38.0311 22.3594C37.756 21.776 37.6184 21.0518 37.6184 20.1868C37.6184 19.2886 37.7609 18.5495 38.046 17.9695C38.331 17.3894 38.7039 16.9602 39.1646 16.6818C39.6286 16.4034 40.1274 16.2642 40.661 16.2642C41.0621 16.2642 41.4051 16.3338 41.6902 16.473C41.9752 16.6089 42.2105 16.7846 42.3961 17C42.5817 17.2154 42.7226 17.4392 42.8187 17.6712H42.8684V13.8182H45.2995V24H42.8933V22.7621H42.8187C42.716 22.9974 42.5701 23.2178 42.3812 23.4233C42.1923 23.6288 41.9553 23.7945 41.6703 23.9205C41.3886 24.0464 41.0555 24.1094 40.671 24.1094ZM41.5162 22.2152C41.8111 22.2152 42.063 22.1323 42.2718 21.9666C42.4806 21.7976 42.6414 21.5606 42.7541 21.2557C42.8668 20.9508 42.9231 20.5928 42.9231 20.1818C42.9231 19.7642 42.8668 19.4046 42.7541 19.103C42.6447 18.8014 42.484 18.5694 42.2718 18.407C42.063 18.2446 41.8111 18.1634 41.5162 18.1634C41.2145 18.1634 40.9593 18.2462 40.7505 18.4119C40.5417 18.5777 40.3826 18.8113 40.2733 19.1129C40.1672 19.4145 40.1142 19.7708 40.1142 20.1818C40.1142 20.5928 40.1689 20.9508 40.2782 21.2557C40.3876 21.5606 40.545 21.7976 40.7505 21.9666C40.9593 22.1323 41.2145 22.2152 41.5162 22.2152ZM50.4066 24.1442C49.6078 24.1442 48.9184 23.9867 48.3384 23.6719C47.7617 23.3537 47.3176 22.9013 47.006 22.3146C46.6978 21.7247 46.5437 21.0237 46.5437 20.2116C46.5437 19.4228 46.6995 18.7334 47.011 18.1435C47.3226 17.5502 47.7617 17.0895 48.3285 16.7614C48.8952 16.4299 49.5631 16.2642 50.332 16.2642C50.8756 16.2642 51.3728 16.3487 51.8235 16.5178C52.2743 16.6868 52.6637 16.937 52.9918 17.2685C53.32 17.5999 53.5752 18.0092 53.7575 18.4964C53.9397 18.9804 54.0309 19.5355 54.0309 20.1619V20.7685H47.3938V19.3565H51.7688C51.7655 19.098 51.7042 18.8677 51.5849 18.6655C51.4656 18.4633 51.3015 18.3059 51.0927 18.1932C50.8872 18.0772 50.6502 18.0192 50.3817 18.0192C50.11 18.0192 49.8664 18.0805 49.6509 18.2031C49.4355 18.3224 49.2648 18.4865 49.1388 18.6953C49.0129 18.9008 48.9466 19.1345 48.94 19.3963V20.8331C48.94 21.1446 49.0013 21.4181 49.1239 21.6534C49.2466 21.8854 49.4206 22.0661 49.646 22.1953C49.8713 22.3246 50.1398 22.3892 50.4513 22.3892C50.6668 22.3892 50.8623 22.3594 51.038 22.2997C51.2137 22.2401 51.3645 22.1522 51.4904 22.0362C51.6164 21.9202 51.7108 21.7777 51.7738 21.6087L54.006 21.6733C53.9132 22.1738 53.7094 22.6096 53.3945 22.9808C53.083 23.3487 52.6737 23.6354 52.1665 23.8409C51.6594 24.0431 51.0728 24.1442 50.4066 24.1442ZM61.9395 18.6953L59.7072 18.755C59.684 18.5959 59.621 18.455 59.5183 18.3324C59.4155 18.2064 59.2813 18.1087 59.1156 18.0391C58.9532 17.9661 58.7643 17.9297 58.5488 17.9297C58.2671 17.9297 58.0268 17.986 57.8279 18.0987C57.6324 18.2114 57.5363 18.3639 57.5396 18.5561C57.5363 18.7053 57.5959 18.8345 57.7186 18.9439C57.8445 19.0533 58.0682 19.1411 58.3897 19.2074L59.8613 19.4858C60.6236 19.6316 61.1904 19.8736 61.5616 20.2116C61.9361 20.5497 62.1251 20.9972 62.1284 21.554C62.1251 22.0777 61.9693 22.5334 61.661 22.9212C61.3561 23.3089 60.9385 23.6106 60.4082 23.826C59.8779 24.0381 59.2714 24.1442 58.5886 24.1442C57.4982 24.1442 56.6381 23.9205 56.0083 23.473C55.3819 23.0223 55.024 22.419 54.9345 21.6634L57.3358 21.6037C57.3888 21.8821 57.5263 22.0942 57.7484 22.2401C57.9705 22.3859 58.2538 22.4588 58.5985 22.4588C58.9101 22.4588 59.1636 22.4008 59.3592 22.2848C59.5547 22.1688 59.6542 22.0147 59.6575 21.8224C59.6542 21.6501 59.5779 21.5125 59.4288 21.4098C59.2797 21.3037 59.046 21.2209 58.7278 21.1612L57.3954 20.9077C56.6298 20.7685 56.0597 20.5116 55.6852 20.1371C55.3107 19.7592 55.1251 19.2786 55.1284 18.6953C55.1251 18.1849 55.2609 17.7491 55.536 17.3878C55.8111 17.0232 56.2022 16.7448 56.7093 16.5526C57.2164 16.3603 57.8147 16.2642 58.5041 16.2642C59.5382 16.2642 60.3535 16.4813 60.9501 16.9155C61.5467 17.3464 61.8765 17.9396 61.9395 18.6953Z" fill="url(#paint0_linear_54_764)"/>
<path d="M65.4375 15.8168V13.8182H74.0433V15.8168H70.956V24H68.5298V15.8168H65.4375ZM77.7074 24.1442C76.9086 24.1442 76.2192 23.9867 75.6392 23.6719C75.0625 23.3537 74.6184 22.9013 74.3068 22.3146C73.9986 21.7247 73.8445 21.0237 73.8445 20.2116C73.8445 19.4228 74.0002 18.7334 74.3118 18.1435C74.6233 17.5502 75.0625 17.0895 75.6293 16.7614C76.196 16.4299 76.8639 16.2642 77.6328 16.2642C78.1764 16.2642 78.6735 16.3487 79.1243 16.5178C79.575 16.6868 79.9645 16.937 80.2926 17.2685C80.6207 17.5999 80.8759 18.0092 81.0582 18.4964C81.2405 18.9804 81.3317 19.5355 81.3317 20.1619V20.7685H74.6946V19.3565H79.0696C79.0663 19.098 79.005 18.8677 78.8857 18.6655C78.7663 18.4633 78.6023 18.3059 78.3935 18.1932C78.188 18.0772 77.951 18.0192 77.6825 18.0192C77.4107 18.0192 77.1671 18.0805 76.9517 18.2031C76.7363 18.3224 76.5656 18.4865 76.4396 18.6953C76.3137 18.9008 76.2474 19.1345 76.2408 19.3963V20.8331C76.2408 21.1446 76.3021 21.4181 76.4247 21.6534C76.5473 21.8854 76.7214 22.0661 76.9467 22.1953C77.1721 22.3246 77.4406 22.3892 77.7521 22.3892C77.9676 22.3892 78.1631 22.3594 78.3388 22.2997C78.5144 22.2401 78.6652 22.1522 78.7912 22.0362C78.9171 21.9202 79.0116 21.7777 79.0746 21.6087L81.3068 21.6733C81.214 22.1738 81.0102 22.6096 80.6953 22.9808C80.3838 23.3487 79.9744 23.6354 79.4673 23.8409C78.9602 24.0431 78.3736 24.1442 77.7074 24.1442ZM84.726 24.1293C84.2388 24.1293 83.8063 24.0481 83.4284 23.8857C83.0539 23.7199 82.7573 23.4714 82.5385 23.1399C82.3231 22.8052 82.2154 22.3859 82.2154 21.8821C82.2154 21.4579 82.29 21.0999 82.4391 20.8082C82.5882 20.5166 82.7937 20.2796 83.0556 20.0973C83.3174 19.915 83.619 19.7775 83.9604 19.6847C84.3018 19.5885 84.6664 19.5239 85.0542 19.4908C85.4883 19.451 85.838 19.4096 86.1032 19.3665C86.3683 19.3201 86.5605 19.2554 86.6799 19.1726C86.8025 19.0864 86.8638 18.9654 86.8638 18.8097V18.7848C86.8638 18.5296 86.776 18.3324 86.6003 18.1932C86.4247 18.054 86.1877 17.9844 85.8894 17.9844C85.5679 17.9844 85.3094 18.054 85.1138 18.1932C84.9183 18.3324 84.794 18.5246 84.7409 18.7699L82.4988 18.6903C82.565 18.2263 82.7357 17.812 83.0108 17.4474C83.2892 17.0795 83.6704 16.7912 84.1543 16.5824C84.6415 16.3703 85.2265 16.2642 85.9093 16.2642C86.3965 16.2642 86.8456 16.3222 87.2566 16.4382C87.6676 16.5509 88.0255 16.7166 88.3304 16.9354C88.6354 17.1508 88.8707 17.416 89.0364 17.7308C89.2054 18.0457 89.29 18.4053 89.29 18.8097V24H87.003V22.9361H86.9434C86.8075 23.1946 86.6335 23.4134 86.4213 23.5923C86.2125 23.7713 85.9656 23.9055 85.6806 23.995C85.3989 24.0845 85.0807 24.1293 84.726 24.1293ZM85.4767 22.5384C85.7386 22.5384 85.9739 22.4853 86.1827 22.3793C86.3948 22.2732 86.5639 22.1274 86.6898 21.9418C86.8158 21.7528 86.8787 21.5341 86.8787 21.2855V20.5597C86.8091 20.5961 86.7246 20.6293 86.6252 20.6591C86.5291 20.6889 86.423 20.7171 86.307 20.7436C86.191 20.7701 86.0717 20.7933 85.949 20.8132C85.8264 20.8331 85.7087 20.8513 85.5961 20.8679C85.3674 20.9044 85.1718 20.9607 85.0094 21.0369C84.8503 21.1132 84.7277 21.2126 84.6415 21.3352C84.5587 21.4545 84.5172 21.5971 84.5172 21.7628C84.5172 22.0147 84.6067 22.2069 84.7857 22.3395C84.968 22.4721 85.1983 22.5384 85.4767 22.5384ZM90.7765 24V16.3636H93.0882V17.7656H93.1728C93.3319 17.3016 93.6003 16.9354 93.9782 16.6669C94.356 16.3984 94.8068 16.2642 95.3304 16.2642C95.8607 16.2642 96.3148 16.4001 96.6926 16.6719C97.0705 16.9437 97.3108 17.3082 97.4135 17.7656H97.4931C97.6356 17.3116 97.914 16.9486 98.3283 16.6768C98.7426 16.4018 99.2315 16.2642 99.7949 16.2642C100.517 16.2642 101.104 16.4962 101.555 16.9602C102.006 17.4209 102.231 18.054 102.231 18.8594V24H99.7999V19.4162C99.7999 19.035 99.7021 18.745 99.5066 18.5462C99.311 18.344 99.0575 18.2429 98.7459 18.2429C98.4112 18.2429 98.1477 18.3523 97.9554 18.571C97.7665 18.7865 97.6721 19.0765 97.6721 19.4411V24H95.3354V19.3913C95.3354 19.0367 95.2393 18.7566 95.0471 18.5511C94.8548 18.3456 94.6013 18.2429 94.2864 18.2429C94.0743 18.2429 93.887 18.2943 93.7246 18.397C93.5622 18.4964 93.4346 18.639 93.3418 18.8246C93.2523 19.0102 93.2076 19.2289 93.2076 19.4808V24H90.7765Z" fill="white"/>
<defs>
<linearGradient id="paint0_linear_54_764" x1="-4.34807" y1="7.65517" x2="78.0873" y2="25.5012" gradientUnits="userSpaceOnUse">
<stop stop-color="#E335B2"/>
<stop offset="1" stop-color="#5922AB"/>
</linearGradient>
</defs>
</svg>
