<svg width="173" height="63" viewBox="0 0 173 63" fill="none" xmlns="http://www.w3.org/2000/svg">
<path d="M1.7959 7.51589H6.1519V15.9039H13.8919V7.51589H18.2839V27.9999H13.8919V20.0439H6.1519V27.9999H1.7959V7.51589Z" fill="url(#paint0_radial_179_381)"/>
<path d="M31.9017 13.3839L29.0217 19.3239H34.7817L31.9017 13.3839ZM27.1497 23.1759L24.7377 27.9999H19.5897L30.5697 7.51589H33.2697L44.2137 27.9999H39.0657L36.6897 23.1759H27.1497Z" fill="url(#paint1_radial_179_381)"/>
<path d="M53.9191 27.9999H45.4951V7.51589H53.9191C55.3591 7.51589 56.7031 7.79189 57.9511 8.34389C59.2231 8.87189 60.3271 9.60389 61.2631 10.5399C62.2231 11.4519 62.9671 12.5319 63.4951 13.7799C64.0471 15.0279 64.3231 16.3599 64.3231 17.7759C64.3231 19.1919 64.0471 20.5239 63.4951 21.7719C62.9671 22.9959 62.2231 24.0759 61.2631 25.0119C60.3271 25.9239 59.2231 26.6559 57.9511 27.2079C56.7031 27.7359 55.3591 27.9999 53.9191 27.9999ZM49.7791 24.3279H53.9191C54.7831 24.3279 55.5871 24.1599 56.3311 23.8239C57.0751 23.4639 57.7231 22.9959 58.2751 22.4199C58.8271 21.8199 59.2591 21.1239 59.5711 20.3319C59.8831 19.5399 60.0391 18.6879 60.0391 17.7759C60.0391 16.8639 59.8831 16.0119 59.5711 15.2199C59.2591 14.4039 58.8271 13.7079 58.2751 13.1319C57.7231 12.5319 57.0751 12.0639 56.3311 11.7279C55.5871 11.3679 54.7831 11.1879 53.9191 11.1879H49.7791V24.3279Z" fill="url(#paint2_radial_179_381)"/>
<path d="M66.9053 27.9999V7.51589H78.5693V11.1519H71.4053V15.9039H78.1373V20.0439H71.4053V23.8959H78.5693V27.9999H66.9053Z" fill="url(#paint3_radial_179_381)"/>
<path d="M87.5867 28.6119C86.7947 28.6119 86.0987 28.5519 85.4987 28.4319C84.8987 28.3359 84.3347 28.1799 83.8067 27.9639C83.3027 27.7239 82.8107 27.4359 82.3307 27.0999C81.8747 26.7399 81.3827 26.3199 80.8547 25.8399L83.4827 22.2039C83.6987 22.4199 83.9627 22.6479 84.2747 22.8879C84.5867 23.1279 84.9107 23.3559 85.2467 23.5719C85.6067 23.7879 85.9667 23.9679 86.3267 24.1119C86.6867 24.2319 87.0227 24.2919 87.3347 24.2919C87.9827 24.2679 88.5107 24.1119 88.9187 23.8239C89.3267 23.5119 89.5427 23.0799 89.5667 22.5279C89.5907 21.9519 89.4107 21.4719 89.0267 21.0879C88.6667 20.7039 88.1987 20.3439 87.6227 20.0079C87.0707 19.6719 86.4467 19.3239 85.7507 18.9639C85.0787 18.6039 84.4547 18.1599 83.8787 17.6319C83.3027 17.1039 82.8227 16.4559 82.4387 15.6879C82.0547 14.8959 81.8627 13.8999 81.8627 12.6999C81.8627 11.7879 82.0547 10.9959 82.4387 10.3239C82.8227 9.62789 83.3147 9.05189 83.9147 8.59589C84.5387 8.11589 85.2107 7.76789 85.9307 7.55189C86.6747 7.31189 87.4067 7.19189 88.1267 7.19189C88.8467 7.19189 89.4827 7.23989 90.0347 7.33589C90.6107 7.40789 91.1267 7.53989 91.5827 7.73189C92.0627 7.89989 92.4947 8.11589 92.8787 8.37989C93.2867 8.64389 93.6947 8.95589 94.1027 9.31589L91.9067 13.3119C91.1867 12.6879 90.5387 12.2439 89.9627 11.9799C89.3867 11.6919 88.7987 11.5239 88.1987 11.4759C87.8387 11.4519 87.4907 11.5239 87.1547 11.6919C86.8187 11.8359 86.6387 12.1839 86.6147 12.7359C86.5907 13.2639 86.7587 13.6839 87.1187 13.9959C87.5027 14.2839 87.9707 14.5719 88.5227 14.8599C89.0987 15.1239 89.7227 15.4239 90.3947 15.7599C91.0667 16.0719 91.6787 16.5159 92.2307 17.0919C92.8067 17.6439 93.2747 18.3519 93.6347 19.2159C93.9947 20.0799 94.1627 21.1959 94.1387 22.5639C94.1147 23.4999 93.8987 24.3399 93.4907 25.0839C93.1067 25.8279 92.6027 26.4639 91.9787 26.9919C91.3787 27.5199 90.6827 27.9159 89.8907 28.1799C89.1227 28.4679 88.3547 28.6119 87.5867 28.6119Z" fill="url(#paint4_radial_179_381)"/>
<path d="M80.7959 35.5159H97.4999V39.1519H91.3439V55.9999H86.8439V39.1519H80.7959V35.5159Z" fill="url(#paint5_radial_179_381)"/>
<path d="M100.097 55.9999V35.5159H111.761V39.1519H104.597V43.9039H111.329V48.0439H104.597V51.8959H111.761V55.9999H100.097Z" fill="url(#paint6_radial_179_381)"/>
<path d="M125.386 41.3839L122.506 47.3239H128.266L125.386 41.3839ZM120.634 51.1759L118.222 55.9999H113.074L124.054 35.5159H126.754L137.698 55.9999H132.55L130.174 51.1759H120.634Z" fill="url(#paint7_radial_179_381)"/>
<path d="M161.155 35.4799L171.847 55.9639H166.88L159.104 41.0959L151.327 55.9639H146.359L152.299 44.6239L150.427 41.0959L142.651 55.9639H137.683L148.447 35.4799H152.443L154.783 39.8719L157.087 35.4799H161.155Z" fill="url(#paint8_radial_179_381)"/>
<defs>
<radialGradient id="paint0_radial_179_381" cx="0" cy="0" r="1" gradientUnits="userSpaceOnUse" gradientTransform="translate(13.4999 10.9999) rotate(15.8975) scale(164.283 47.1524)">
<stop offset="0.0678394" stop-color="#85C1BE"/>
<stop offset="1" stop-color="#51A8A4"/>
</radialGradient>
<radialGradient id="paint1_radial_179_381" cx="0" cy="0" r="1" gradientUnits="userSpaceOnUse" gradientTransform="translate(13.4999 10.9999) rotate(15.8975) scale(164.283 47.1524)">
<stop offset="0.0678394" stop-color="#85C1BE"/>
<stop offset="1" stop-color="#51A8A4"/>
</radialGradient>
<radialGradient id="paint2_radial_179_381" cx="0" cy="0" r="1" gradientUnits="userSpaceOnUse" gradientTransform="translate(13.4999 10.9999) rotate(15.8975) scale(164.283 47.1524)">
<stop offset="0.0678394" stop-color="#85C1BE"/>
<stop offset="1" stop-color="#51A8A4"/>
</radialGradient>
<radialGradient id="paint3_radial_179_381" cx="0" cy="0" r="1" gradientUnits="userSpaceOnUse" gradientTransform="translate(13.4999 10.9999) rotate(15.8975) scale(164.283 47.1524)">
<stop offset="0.0678394" stop-color="#85C1BE"/>
<stop offset="1" stop-color="#51A8A4"/>
</radialGradient>
<radialGradient id="paint4_radial_179_381" cx="0" cy="0" r="1" gradientUnits="userSpaceOnUse" gradientTransform="translate(13.4999 10.9999) rotate(15.8975) scale(164.283 47.1524)">
<stop offset="0.0678394" stop-color="#85C1BE"/>
<stop offset="1" stop-color="#51A8A4"/>
</radialGradient>
<radialGradient id="paint5_radial_179_381" cx="0" cy="0" r="1" gradientUnits="userSpaceOnUse" gradientTransform="translate(13.4999 10.9999) rotate(15.8975) scale(164.283 47.1524)">
<stop offset="0.0678394" stop-color="#85C1BE"/>
<stop offset="1" stop-color="#51A8A4"/>
</radialGradient>
<radialGradient id="paint6_radial_179_381" cx="0" cy="0" r="1" gradientUnits="userSpaceOnUse" gradientTransform="translate(13.4999 10.9999) rotate(15.8975) scale(164.283 47.1524)">
<stop offset="0.0678394" stop-color="#85C1BE"/>
<stop offset="1" stop-color="#51A8A4"/>
</radialGradient>
<radialGradient id="paint7_radial_179_381" cx="0" cy="0" r="1" gradientUnits="userSpaceOnUse" gradientTransform="translate(13.4999 10.9999) rotate(15.8975) scale(164.283 47.1524)">
<stop offset="0.0678394" stop-color="#85C1BE"/>
<stop offset="1" stop-color="#51A8A4"/>
</radialGradient>
<radialGradient id="paint8_radial_179_381" cx="0" cy="0" r="1" gradientUnits="userSpaceOnUse" gradientTransform="translate(13.4999 10.9999) rotate(15.8975) scale(164.283 47.1524)">
<stop offset="0.0678394" stop-color="#85C1BE"/>
<stop offset="1" stop-color="#51A8A4"/>
</radialGradient>
</defs>
</svg>
