<svg width="24" height="25" viewBox="0 0 24 25" fill="none" xmlns="http://www.w3.org/2000/svg">
<g clip-path="url(#clip0_14_441)">
<path d="M3 21.5715L4.65 17.7715C3.38766 15.9796 2.82267 13.7885 3.06104 11.6096C3.29942 9.43068 4.32479 7.41364 5.94471 5.93702C7.56463 4.4604 9.66775 3.62572 11.8594 3.5896C14.051 3.55349 16.1805 4.31843 17.8482 5.74087C19.5159 7.16332 20.6071 9.14548 20.9172 11.3154C21.2272 13.4853 20.7347 15.6937 19.5321 17.5263C18.3295 19.3588 16.4994 20.6895 14.3854 21.2686C12.2713 21.8477 10.0186 21.6354 8.05 20.6715L3 21.5715Z" stroke="#51A8A4" stroke-width="2" stroke-linecap="round" stroke-linejoin="round"/>
<path d="M9 10.5715C9 10.7041 9.05268 10.8313 9.14645 10.9251C9.24021 11.0189 9.36739 11.0715 9.5 11.0715C9.63261 11.0715 9.75979 11.0189 9.85355 10.9251C9.94732 10.8313 10 10.7041 10 10.5715V9.57153C10 9.43892 9.94732 9.31175 9.85355 9.21798C9.75979 9.12421 9.63261 9.07153 9.5 9.07153C9.36739 9.07153 9.24021 9.12421 9.14645 9.21798C9.05268 9.31175 9 9.43892 9 9.57153V10.5715ZM9 10.5715C9 11.8976 9.52678 13.1694 10.4645 14.1071C11.4021 15.0447 12.6739 15.5715 14 15.5715M14 15.5715H15C15.1326 15.5715 15.2598 15.5189 15.3536 15.4251C15.4473 15.3313 15.5 15.2041 15.5 15.0715C15.5 14.9389 15.4473 14.8117 15.3536 14.718C15.2598 14.6242 15.1326 14.5715 15 14.5715H14C13.8674 14.5715 13.7402 14.6242 13.6464 14.718C13.5527 14.8117 13.5 14.9389 13.5 15.0715C13.5 15.2041 13.5527 15.3313 13.6464 15.4251C13.7402 15.5189 13.8674 15.5715 14 15.5715Z" stroke="#51A8A4" stroke-width="2" stroke-linecap="round" stroke-linejoin="round"/>
</g>
<defs>
<clipPath id="clip0_14_441">
<rect width="24" height="24" fill="white" transform="translate(0 0.571533)"/>
</clipPath>
</defs>
</svg>
